<svg id="Layer_15" data-name="Layer 15" xmlns="http://www.w3.org/2000/svg" viewBox="0 0 1200 138.97"><defs><style>.cls-1{fill:#fff;}.cls-2{opacity:0.75;}.cls-3{fill:#fa7d00;}.cls-4{fill:#e51434;}.cls-5{fill:#0066b3;}.cls-6{fill:#ffc535;}.cls-7{fill:#1ac867;}.cls-8{fill:#31cadf;}.cls-9{fill:#ffb703;}.cls-10{fill:#fb9733;}.cls-11{fill:#e1e1e1;}</style></defs><path class="cls-1" d="M189.47,75.82h63.16a0,0,0,0,1,0,0v39.34A23.82,23.82,0,0,1,228.81,139H213.29a23.82,23.82,0,0,1-23.82-23.82V75.82A0,0,0,0,1,189.47,75.82Z"/><path class="cls-1" d="M315.79,75.82h63.16a0,0,0,0,1,0,0v39.34A23.82,23.82,0,0,1,355.13,139H339.61a23.82,23.82,0,0,1-23.82-23.82V75.82A0,0,0,0,1,315.79,75.82Z"/><path class="cls-1" d="M442.11,75.82h63.16a0,0,0,0,1,0,0v39.34A23.82,23.82,0,0,1,481.44,139H465.92a23.82,23.82,0,0,1-23.82-23.82V75.82A0,0,0,0,1,442.11,75.82Z"/><path class="cls-1" d="M568.42,75.82h63.16a0,0,0,0,1,0,0v39.34A23.82,23.82,0,0,1,607.76,139H592.24a23.82,23.82,0,0,1-23.82-23.82V75.82A0,0,0,0,1,568.42,75.82Z"/><path class="cls-1" d="M63.16,75.82h63.16a0,0,0,0,1,0,0v39.34A23.82,23.82,0,0,1,102.5,139H87a23.82,23.82,0,0,1-23.82-23.82V75.82A0,0,0,0,1,63.16,75.82Z"/><path class="cls-1" d="M694.74,75.82h63.16a0,0,0,0,1,0,0v39.34A23.82,23.82,0,0,1,734.08,139H718.56a23.82,23.82,0,0,1-23.82-23.82V75.82A0,0,0,0,1,694.74,75.82Z"/><path class="cls-1" d="M821.05,75.82h63.16a0,0,0,0,1,0,0v39.34A23.82,23.82,0,0,1,860.39,139H844.87a23.82,23.82,0,0,1-23.82-23.82V75.82A0,0,0,0,1,821.05,75.82Z"/><path class="cls-1" d="M947.37,75.82h63.16a0,0,0,0,1,0,0v39.34A23.82,23.82,0,0,1,986.71,139H971.19a23.82,23.82,0,0,1-23.82-23.82V75.82A0,0,0,0,1,947.37,75.82Z"/><path class="cls-1" d="M1073.68,75.82h63.16a0,0,0,0,1,0,0v39.34A23.82,23.82,0,0,1,1113,139H1097.5a23.82,23.82,0,0,1-23.82-23.82V75.82a0,0,0,0,1,0,0Z"/><g class="cls-2"><path class="cls-3" d="M126.32,75.82h63.16a0,0,0,0,1,0,0v39.34A23.82,23.82,0,0,1,165.65,139H150.14a23.82,23.82,0,0,1-23.82-23.82V75.82A0,0,0,0,1,126.32,75.82Z"/></g><g class="cls-2"><path class="cls-4" d="M252.63,75.82h63.16a0,0,0,0,1,0,0v39.34A23.82,23.82,0,0,1,292,139H276.45a23.82,23.82,0,0,1-23.82-23.82V75.82A0,0,0,0,1,252.63,75.82Z"/></g><g class="cls-2"><path class="cls-5" d="M378.95,75.82h63.16a0,0,0,0,1,0,0v39.34A23.82,23.82,0,0,1,418.29,139H402.77a23.82,23.82,0,0,1-23.82-23.82V75.82a0,0,0,0,1,0,0Z"/></g><g class="cls-2"><path class="cls-6" d="M505.26,75.82h63.16a0,0,0,0,1,0,0v39.34A23.82,23.82,0,0,1,544.6,139H529.08a23.82,23.82,0,0,1-23.82-23.82V75.82a0,0,0,0,1,0,0Z"/></g><g class="cls-2"><path class="cls-7" d="M631.58,75.82h63.16a0,0,0,0,1,0,0v39.34A23.82,23.82,0,0,1,670.92,139H655.4a23.82,23.82,0,0,1-23.82-23.82V75.82A0,0,0,0,1,631.58,75.82Z"/></g><polygon class="cls-3" points="189.47 75.81 126.32 75.81 183.84 0 239.33 0 189.47 75.81"/><g class="cls-2"><path class="cls-8" d="M0,75.82H63.16a0,0,0,0,1,0,0v39.34A23.82,23.82,0,0,1,39.34,139H23.82A23.82,23.82,0,0,1,0,115.15V75.82A0,0,0,0,1,0,75.82Z"/></g><polygon class="cls-8" points="63.16 75.81 0 75.81 72.86 0 128.35 0 63.16 75.81"/><polygon class="cls-4" points="315.79 75.81 252.63 75.81 294.81 0 350.3 0 315.79 75.81"/><polygon class="cls-5" points="442.11 75.81 378.95 75.81 405.79 0 461.28 0 442.11 75.81"/><polygon class="cls-9" points="568.42 75.81 505.26 75.81 516.77 0 572.26 0 568.42 75.81"/><polygon class="cls-7" points="694.74 75.81 631.58 75.81 627.74 0 683.23 0 694.74 75.81"/><g class="cls-2"><path class="cls-8" d="M757.89,75.82h63.16a0,0,0,0,1,0,0v39.34A23.82,23.82,0,0,1,797.23,139H781.71a23.82,23.82,0,0,1-23.82-23.82V75.82A0,0,0,0,1,757.89,75.82Z"/></g><g class="cls-2"><path class="cls-10" d="M884.21,75.82h63.16a0,0,0,0,1,0,0v39.34A23.82,23.82,0,0,1,923.55,139H908a23.82,23.82,0,0,1-23.82-23.82V75.82A0,0,0,0,1,884.21,75.82Z"/></g><g class="cls-2"><path class="cls-4" d="M1010.53,75.82h63.16a0,0,0,0,1,0,0v39.34A23.82,23.82,0,0,1,1049.86,139h-15.52a23.82,23.82,0,0,1-23.82-23.82V75.82a0,0,0,0,1,0,0Z"/></g><g class="cls-2"><path class="cls-5" d="M1136.84,75.82H1200a0,0,0,0,1,0,0v39.34A23.82,23.82,0,0,1,1176.18,139h-15.52a23.82,23.82,0,0,1-23.82-23.82V75.82A0,0,0,0,1,1136.84,75.82Z"/></g><polygon class="cls-8" points="821.05 75.81 757.89 75.81 738.72 0 794.21 0 821.05 75.81"/><polygon class="cls-3" points="947.37 75.81 884.21 75.81 849.7 0 905.18 0 947.37 75.81"/><polygon class="cls-4" points="1073.68 75.81 1010.53 75.81 960.67 0 1016.16 0 1073.68 75.81"/><polygon class="cls-5" points="1200 75.81 1136.84 75.81 1071.65 0 1127.14 0 1200 75.81"/><polygon class="cls-11" points="252.63 75.81 189.47 75.81 239.33 0 294.81 0 252.63 75.81"/><polygon class="cls-11" points="126.32 75.81 63.16 75.81 128.35 0 183.84 0 126.32 75.81"/><polygon class="cls-11" points="378.95 75.81 315.79 75.81 350.3 0 405.79 0 378.95 75.81"/><polygon class="cls-11" points="505.26 75.81 442.11 75.81 461.28 0 516.77 0 505.26 75.81"/><polygon class="cls-11" points="631.58 75.81 568.42 75.81 572.26 0 627.74 0 631.58 75.81"/><polygon class="cls-11" points="757.89 75.81 694.74 75.81 683.23 0 738.72 0 757.89 75.81"/><polygon class="cls-11" points="884.21 75.81 821.05 75.81 794.21 0 849.7 0 884.21 75.81"/><polygon class="cls-11" points="1010.53 75.81 947.37 75.81 905.18 0 960.67 0 1010.53 75.81"/><polygon class="cls-11" points="1136.84 75.81 1073.68 75.81 1016.16 0 1071.65 0 1136.84 75.81"/></svg>