<svg xmlns="http://www.w3.org/2000/svg" xmlns:xlink="http://www.w3.org/1999/xlink" viewBox="0 0 1382.25 725.89"><defs><style>.cls-1{fill:none;clip-rule:evenodd;}.cls-2{isolation:isolate;}.cls-3{fill:#c5c7d3;}.cls-4{fill:#2b3038;}.cls-5{fill:#ecedf2;}.cls-6{fill:#37b34a;}.cls-7{fill:#7fa43f;}.cls-8{fill:#c0e3ef;}.cls-9{fill:#d8effc;}.cls-10{mix-blend-mode:multiply;}.cls-11{fill:#f1f1f2;}.cls-12{fill:#eaf6fd;}.cls-13{fill:#8e9096;}.cls-14{fill:#3bb3e7;}.cls-15{fill:#fff;}.cls-16{fill:#d0d2d3;}.cls-17{fill:#ffde7d;}.cls-18{fill:#4b525c;}.cls-19{fill:#dcdde2;}.cls-20{fill:#575a5e;}.cls-21{fill:#dbdcdd;}.cls-22{fill:#e44e40;}.cls-23{fill:#e6e7e8;}.cls-24{fill:#ec1c24;}.cls-25{fill:#a03429;}.cls-26{fill:#3a4049;}.cls-27{fill:#fde0ce;}.cls-28{fill:#e76a43;}.cls-29{fill:#8bc53f;}.cls-30{clip-path:url(#clip-path);}.cls-31{fill:url(#linear-gradient);}.cls-32{clip-path:url(#clip-path-2);}.cls-33{fill:url(#linear-gradient-2);}.cls-34{clip-path:url(#clip-path-3);}.cls-35{fill:url(#linear-gradient-3);}.cls-36,.cls-37{fill:#005091;}.cls-36,.cls-37,.cls-38,.cls-39,.cls-42,.cls-43{fill-rule:evenodd;}.cls-36{opacity:0.21;}.cls-37{opacity:0.33;}.cls-38,.cls-39{fill:#39d5ff;}.cls-38{opacity:0.38;}.cls-39{opacity:0.23;}.cls-40{clip-path:url(#clip-path-4);}.cls-41{fill:url(#linear-gradient-4);}.cls-42,.cls-43{fill:#aee63b;}.cls-42{opacity:0.19;}.cls-43{opacity:0.27;}</style><clipPath id="clip-path"><path class="cls-1" d="M294.54,374.19l1.12-6s15.91,18,40.74,17a48.18,48.18,0,0,1-15.85,1.19c-7.77-.94-19.3-5.82-19.3-5.82Z"/></clipPath><linearGradient id="linear-gradient" x1="312.87" y1="360.98" x2="318.1" y2="394.85" gradientUnits="userSpaceOnUse"><stop offset="0" stop-color="#c5d3e2"/><stop offset="1" stop-color="#fefefe"/></linearGradient><clipPath id="clip-path-2"><path class="cls-1" d="M293.07,351.61l-1.88-4.42-1.73-7.87s-.5,9.83,2.77,18.59c2.7,7.22,11.56,13.93,17.81,11.82,7-2.38,4.64-10.53-.48-13.91-.65-.43,1.36,10.64.72,10.28-3.17-1.81-9.27-1.39-9.25-1.38Z"/></clipPath><linearGradient id="linear-gradient-2" x1="292.31" y1="330.73" x2="313.31" y2="379.46" xlink:href="#linear-gradient"/><clipPath id="clip-path-3"><path class="cls-1" d="M324.45,385.76h0a36.32,36.32,0,0,0,12-.48c-3.46,1.81-11.95,2.53-15.89,2.77-2.27,1.3-4.54,2.6-6.77,3.85a7.21,7.21,0,0,1-9,0c-4.8-2.71-9.82-5.6-14.56-8.4a7.23,7.23,0,0,1-4.49-7.77c-.05-5.51-.05-11.3,0-16.81a9.57,9.57,0,0,1,.89-4.67A7.37,7.37,0,0,1,288.9,352c2.56,16.79,17.78,31.58,35.55,33.78"/></clipPath><linearGradient id="linear-gradient-3" x1="318.68" y1="392.12" x2="298.74" y2="341.48" gradientUnits="userSpaceOnUse"><stop offset="0" stop-color="#0057a0"/><stop offset="1" stop-color="#29c5ff"/></linearGradient><clipPath id="clip-path-4"><path class="cls-1" d="M304,356.25a4.2,4.2,0,1,1-4.2,4.19,4.2,4.2,0,0,1,4.2-4.19m24.32-5.1a7.22,7.22,0,0,1,4.48,7.77c0,5.51,0,11.3,0,16.81,0,1.56.15,3.45-.89,4.66-6.23,7.23-21.46-3.13-23.64-7.87,13.12-.54,7.27-15.11,1.3-16.7,5.13,5.13,4.55,12.56-3.29,11.67-7.41-.85-11.76-7-14.18-14h0a53.34,53.34,0,0,1-2.63-14.13s1.5,6.8,3.28,10.35c4-2.33,8.08-4.69,12-6.93a7.21,7.21,0,0,1,9,0C318.57,345.47,323.52,348.33,328.31,351.15Z"/></clipPath><linearGradient id="linear-gradient-4" x1="319.21" y1="382.71" x2="302.51" y2="342.56" gradientUnits="userSpaceOnUse"><stop offset="0" stop-color="#0a868f"/><stop offset="1" stop-color="#2fc19c"/></linearGradient></defs><g class="cls-2"><g id="Layer_15" data-name="Layer 15"><rect class="cls-3" x="250.91" y="280.91" width="134.45" height="15.61"/><path class="cls-4" d="M385.36,300.76H250.91a4.24,4.24,0,0,1-4.24-4.24V280.91a4.24,4.24,0,0,1,4.24-4.24H385.36a4.24,4.24,0,0,1,4.24,4.24v15.61a4.24,4.24,0,0,1-4.24,4.24Zm-130.21-8.48h126v-7.13h-126v7.13Z"/><path class="cls-5" d="M250.91,288.72a14.84,14.84,0,1,0-14.84,14.84A14.83,14.83,0,0,0,250.91,288.72Z"/><path class="cls-4" d="M236.07,307.8a19.08,19.08,0,1,1,19.08-19.08,19.11,19.11,0,0,1-19.08,19.08Zm0-29.68a10.6,10.6,0,1,0,10.6,10.6,10.61,10.61,0,0,0-10.6-10.6Z"/><path class="cls-4" d="M309.65,437.39a4.5,4.5,0,0,1-1.44-.25c-20.84-7.51-55.8-21.93-55.8-34.21v-86.4a4.23,4.23,0,0,1,4.24-4.24h106a4.24,4.24,0,0,1,4.24,4.24v86.4c0,12.28-35,26.7-55.8,34.21a4.5,4.5,0,0,1-1.44.25ZM260.89,320.77v82.16c.91,4.55,23.52,16.48,48.76,25.7,25.24-9.22,47.85-21.15,48.76-25.78V320.77Z"/><path class="cls-4" d="M309.65,420.57a3.11,3.11,0,0,1-1.08-.19c-16.56-6-55.1-21.13-55.1-33.2V384h6.36v3.18c0,4.67,23.15,17.12,49.82,26.84,26.67-9.72,49.82-22.17,49.82-26.84V384h6.36v3.18c0,12.07-38.54,27.24-55.1,33.2a3.11,3.11,0,0,1-1.08.19Z"/><path class="cls-4" d="M277.86,337.2a3.18,3.18,0,0,1-3.18-3.18V274.23a3.18,3.18,0,0,1,6.36,0V334a3.19,3.19,0,0,1-3.18,3.18Z"/><path class="cls-4" d="M341.44,337.2a3.19,3.19,0,0,1-3.18-3.18V274.23a3.18,3.18,0,1,1,6.36,0V334a3.18,3.18,0,0,1-3.18,3.18Z"/><path class="cls-4" d="M282.61,334a4.76,4.76,0,1,0-4.75,4.75A4.76,4.76,0,0,0,282.61,334Z"/><path class="cls-4" d="M346.2,334a4.76,4.76,0,1,0-4.76,4.75A4.75,4.75,0,0,0,346.2,334Z"/><polygon class="cls-4" points="311.35 455.38 307.95 455.38 307.95 436.22 311.35 436.22 311.35 455.38 311.35 455.38"/><polygon class="cls-4" points="329.01 448.37 325.62 448.37 325.62 429.21 329.01 429.21 329.01 448.37 329.01 448.37"/><polygon class="cls-4" points="346.68 440.09 343.29 440.09 343.29 420.93 346.68 420.93 346.68 440.09 346.68 440.09"/><polygon class="cls-4" points="364.35 425.17 360.95 425.17 360.95 406.01 364.35 406.01 364.35 425.17 364.35 425.17"/><polygon class="cls-4" points="293.68 448.37 290.29 448.37 290.29 429.21 293.68 429.21 293.68 448.37 293.68 448.37"/><polygon class="cls-4" points="276.01 440.09 272.62 440.09 272.62 420.93 276.01 420.93 276.01 440.09 276.01 440.09"/><polygon class="cls-4" points="258.35 425.17 254.95 425.17 254.95 406.01 258.35 406.01 258.35 425.17 258.35 425.17"/><path class="cls-4" d="M259.41,423.47a2.76,2.76,0,1,0-2.76,2.75A2.77,2.77,0,0,0,259.41,423.47Z"/><path class="cls-4" d="M277.07,438.4a2.76,2.76,0,1,0-2.76,2.74A2.76,2.76,0,0,0,277.07,438.4Z"/><path class="cls-4" d="M294.74,446.68a2.76,2.76,0,1,0-2.75,2.75A2.76,2.76,0,0,0,294.74,446.68Z"/><path class="cls-4" d="M312.41,453.68a2.76,2.76,0,1,0-2.76,2.75A2.77,2.77,0,0,0,312.41,453.68Z"/><path class="cls-4" d="M330.07,446.68a2.76,2.76,0,1,0-2.76,2.75A2.76,2.76,0,0,0,330.07,446.68Z"/><path class="cls-4" d="M347.74,438.4a2.76,2.76,0,1,0-2.75,2.74A2.76,2.76,0,0,0,347.74,438.4Z"/><path class="cls-4" d="M365.41,423.47a2.76,2.76,0,1,0-2.76,2.75A2.77,2.77,0,0,0,365.41,423.47Z"/><path class="cls-6" d="M1198.24,696.35c.11-1.57.23-3.15.23-4.76a60.4,60.4,0,1,0-120.79,0c0,1.61.11,3.19.25,4.76Z"/><path class="cls-4" d="M1201.19,699.53H1075l-.24-2.91c-.15-1.66-.26-3.33-.26-5a63.58,63.58,0,1,1,127.15,0c0,1.69-.12,3.35-.24,5l-.22,2.95Zm-120.3-6.36h114.37c0-.52,0-1,0-1.58a57.22,57.22,0,1,0-114.43,0c0,.53,0,1.06,0,1.58Z"/><path class="cls-7" d="M1241.88,696.35c.1-1.36.2-2.74.2-4.14a52.56,52.56,0,1,0-105.11,0c0,1.4.1,2.78.22,4.14Z"/><path class="cls-4" d="M1244.84,699.53H1134.26l-.24-2.91c-.13-1.45-.23-2.92-.23-4.41a55.74,55.74,0,1,1,111.47,0c0,1.48-.1,2.93-.21,4.37l-.21,2.95Zm-104.67-6.36h98.71c0-.32,0-.64,0-1a49.38,49.38,0,1,0-98.75,0c0,.32,0,.64,0,1Z"/><path class="cls-3" d="M376.29,671.66a13.17,13.17,0,0,1,13.16-13.17H975.17a13.17,13.17,0,0,1,13.17,13.17v11.53a13.18,13.18,0,0,1-13.17,13.16H389.45a13.18,13.18,0,0,1-13.16-13.16Z"/><rect class="cls-5" x="385.36" width="593.9" height="658.49"/><rect class="cls-8" x="671.61" y="347.55" width="264.87" height="236.91"/><rect class="cls-3" x="385.36" y="522.8" width="32.34" height="21.81"/><rect class="cls-3" x="612.38" y="433.34" width="32.34" height="21.81"/><rect class="cls-3" x="939.93" y="444.19" width="39.34" height="21.81"/><rect class="cls-3" x="416.73" y="386.6" width="32.34" height="21.81"/><rect class="cls-3" x="946.93" y="636.68" width="32.33" height="21.81"/><polygon class="cls-9" points="847.79 347.55 721.54 347.55 671.61 437.63 671.61 482.46 773 482.46 847.79 347.55"/><polygon class="cls-9" points="936.48 406.98 936.48 347.55 902.56 347.55 827.78 482.46 894.64 482.46 936.48 406.98"/><polygon class="cls-9" points="872.02 584.46 928.56 482.46 887.14 482.46 830.6 584.46 872.02 584.46"/><polygon class="cls-9" points="737.73 482.46 681.19 584.46 741.9 584.46 798.45 482.46 737.73 482.46"/><g class="cls-10"><path class="cls-11" d="M385.37,68.9a63.86,63.86,0,0,0,17,2.38,63.34,63.34,0,0,0,46.65-20.52,63.3,63.3,0,0,0,93.31,0,63.29,63.29,0,0,0,93.29,0,63.32,63.32,0,0,0,93.32,0,63.27,63.27,0,0,0,93.28,0,63.3,63.3,0,0,0,93.3,0,63.4,63.4,0,0,0,46.66,20.52,64,64,0,0,0,17.06-2.38V7.66H385.37Z"/></g><path class="cls-4" d="M979.26,662.73H385.36a4.24,4.24,0,0,1-4.24-4.24V298.05h8.48v356.2H975V298.05h8.48V658.49a4.24,4.24,0,0,1-4.24,4.24Z"/><path class="cls-4" d="M1008.88,7.84H947.06a3.18,3.18,0,1,1,0-6.36h61.82a3.18,3.18,0,0,1,0,6.36Z"/><path class="cls-4" d="M871.32,7.84H860.08a3.18,3.18,0,0,1,0-6.36h11.24a3.18,3.18,0,0,1,0,6.36Z"/><path class="cls-4" d="M930.1,7.84H891.41a3.18,3.18,0,1,1,0-6.36H930.1a3.18,3.18,0,0,1,0,6.36Z"/><path class="cls-4" d="M845.3,7.84H758.2a3.18,3.18,0,0,1,0-6.36h87.1a3.18,3.18,0,1,1,0,6.36Z"/><path class="cls-4" d="M729,7.84H673.05a3.18,3.18,0,1,1,0-6.36H729a3.18,3.18,0,0,1,0,6.36Z"/><path class="cls-9" d="M917.81,469.19a3.18,3.18,0,0,1-2.78-4.72l17.89-32.27a3.18,3.18,0,1,1,5.56,3.08L920.6,467.55a3.18,3.18,0,0,1-2.79,1.64Z"/><path class="cls-4" d="M647.25,7.84h-48a3.18,3.18,0,0,1,0-6.36h48a3.18,3.18,0,0,1,0,6.36Z"/><path class="cls-9" d="M674.29,574.3a3,3,0,0,1-1.53-.4,3.18,3.18,0,0,1-1.25-4.32l21.69-39.14a3.18,3.18,0,0,1,5.56,3.08l-21.68,39.14a3.18,3.18,0,0,1-2.79,1.64Z"/><path class="cls-9" d="M793.2,554.73a3.12,3.12,0,0,1-1.54-.39,3.19,3.19,0,0,1-1.25-4.33l21.7-39.14a3.18,3.18,0,0,1,5.57,3.09L796,553.09a3.18,3.18,0,0,1-2.78,1.64Z"/><path class="cls-9" d="M846.46,529.44a3.08,3.08,0,0,1-1.54-.4,3.18,3.18,0,0,1-1.24-4.32l2.85-5.15a3.18,3.18,0,1,1,5.56,3.08l-2.85,5.15a3.17,3.17,0,0,1-2.78,1.64Z"/><path class="cls-9" d="M855,514a3.08,3.08,0,0,1-1.54-.4,3.18,3.18,0,0,1-1.24-4.32l13.12-23.67a3.18,3.18,0,0,1,5.57,3.08l-13.12,23.67A3.18,3.18,0,0,1,855,514Z"/><path class="cls-4" d="M566,7.84H355.75a3.18,3.18,0,0,1,0-6.36H566a3.18,3.18,0,0,1,0,6.36Z"/><path class="cls-4" d="M975.17,700.59H389.45a17.42,17.42,0,0,1-17.4-17.4V671.66a17.42,17.42,0,0,1,17.4-17.41H975.17a17.43,17.43,0,0,1,17.41,17.41v11.53a17.43,17.43,0,0,1-17.41,17.4ZM389.45,662.73a8.94,8.94,0,0,0-8.92,8.93v11.53a8.93,8.93,0,0,0,8.92,8.92H975.17a8.94,8.94,0,0,0,8.93-8.92V671.66a9,9,0,0,0-8.93-8.93Z"/><path class="cls-12" d="M856.66,589.45a3.18,3.18,0,0,1-2.78-4.72L890,519.57a3.18,3.18,0,0,1,5.56,3.08l-36.1,65.16a3.18,3.18,0,0,1-2.79,1.64Z"/><path class="cls-3" d="M943.25,597.75a12.57,12.57,0,0,0-12.58-12.57H677.44a12.58,12.58,0,0,0-12.59,12.57v5.5a12.59,12.59,0,0,0,12.59,12.58H930.67a12.58,12.58,0,0,0,12.58-12.58Z"/><path class="cls-4" d="M930.67,620.07H677.44a16.84,16.84,0,0,1-16.82-16.82v-5.5a16.84,16.84,0,0,1,16.82-16.82H930.67a16.85,16.85,0,0,1,16.83,16.82v5.5a16.85,16.85,0,0,1-16.83,16.82ZM677.44,589.41a8.36,8.36,0,0,0-8.35,8.34v5.5a8.36,8.36,0,0,0,8.35,8.34H930.67a8.35,8.35,0,0,0,8.34-8.34v-5.5a8.35,8.35,0,0,0-8.34-8.34Z"/><rect class="cls-3" x="449.07" y="347.55" width="163.32" height="289.55"/><path class="cls-4" d="M616.62,641.34H444.83v-298H616.62v298Zm-163.31-8.48H608.14V351.79H453.31V632.86Z"/><rect class="cls-13" x="439.65" y="637.1" width="182.15" height="21.39"/><path class="cls-4" d="M626,662.73H435.41V632.86H626v29.87Zm-182.15-8.48H617.56V641.34H443.89v12.91Z"/><g class="cls-10"><path class="cls-11" d="M671.61,380.14a46.54,46.54,0,0,0,66.4.25,46.54,46.54,0,0,0,66.15,0,46.56,46.56,0,0,0,66.17,0,46.54,46.54,0,0,0,66.15,0V347.55H671.61Z"/></g><path class="cls-14" d="M704.93,380.62A33.08,33.08,0,0,0,738,347.55H671.84A33.09,33.09,0,0,0,704.93,380.62Z"/><path class="cls-15" d="M771.1,380.62a33.07,33.07,0,0,0,33.06-33.07H738A33.07,33.07,0,0,0,771.1,380.62Z"/><path class="cls-14" d="M837.25,380.62a33.08,33.08,0,0,0,33.08-33.07H804.16A33.08,33.08,0,0,0,837.25,380.62Z"/><path class="cls-15" d="M903.39,380.62a33.07,33.07,0,0,0,33.09-33.07H870.33A33.07,33.07,0,0,0,903.39,380.62Z"/><path class="cls-12" d="M899.83,511.55a3.18,3.18,0,0,1-2.79-4.72l3.2-5.77a3.18,3.18,0,0,1,5.57,3.08l-3.2,5.77a3.15,3.15,0,0,1-2.78,1.64Z"/><path class="cls-4" d="M940.72,588.7H667.37V343.31H940.72V588.7Zm-264.87-8.48H932.24V351.79H675.85V580.22Z"/><path class="cls-12" d="M714,480.35a3.18,3.18,0,0,1-2.78-4.72l16.11-29.07a3.18,3.18,0,0,1,5.57,3.08l-16.12,29.07a3.17,3.17,0,0,1-2.78,1.64Z"/><path class="cls-12" d="M743.74,556.16a3.18,3.18,0,0,1-2.78-4.72l7.52-13.57A3.18,3.18,0,1,1,754,541l-7.52,13.57a3.17,3.17,0,0,1-2.78,1.64Z"/><path class="cls-12" d="M758.7,529.17a3.13,3.13,0,0,1-1.54-.4,3.17,3.17,0,0,1-1.25-4.32l21.39-38.59a3.18,3.18,0,1,1,5.56,3.08l-21.38,38.59a3.18,3.18,0,0,1-2.78,1.64Z"/><path class="cls-4" d="M704.93,383.8a36.3,36.3,0,0,1-36.27-36.25v-3.18h72.53v3.18a36.3,36.3,0,0,1-36.26,36.25Zm-29.74-33.07a29.91,29.91,0,0,0,59.47,0Z"/><path class="cls-4" d="M771.1,383.8a36.3,36.3,0,0,1-36.27-36.25v-3.18h72.51v3.18A36.29,36.29,0,0,1,771.1,383.8Zm-29.75-33.07a29.9,29.9,0,0,0,59.46,0Z"/><path class="cls-4" d="M837.25,383.8A36.3,36.3,0,0,1,801,347.55v-3.18h72.53v3.18a36.3,36.3,0,0,1-36.26,36.25Zm-29.74-33.07a29.91,29.91,0,0,0,59.47,0Z"/><path class="cls-4" d="M903.39,383.8a36.29,36.29,0,0,1-36.24-36.25v-3.18h72.51v3.18a36.3,36.3,0,0,1-36.27,36.25Zm-29.72-33.07a29.9,29.9,0,0,0,59.46,0Z"/><polygon class="cls-4" points="936.48 487.12 671.61 487.12 671.61 477.8 936.48 477.8 936.48 487.12 936.48 487.12"/><g class="cls-10"><polygon class="cls-11" points="936.48 497.3 671.61 497.3 671.61 487.12 936.48 487.12 936.48 497.3 936.48 497.3"/></g><path class="cls-4" d="M804,588.7h0a4.24,4.24,0,0,1-4.24-4.25l.12-102a4.24,4.24,0,0,1,4.24-4.23h0a4.25,4.25,0,0,1,4.23,4.25l-.12,102A4.23,4.23,0,0,1,804,588.7Z"/><path class="cls-12" d="M682.87,448.86a3.17,3.17,0,0,1-2.78-4.72l4.52-8.15a3.18,3.18,0,0,1,5.57,3.08l-4.52,8.15a3.17,3.17,0,0,1-2.79,1.64Z"/><path class="cls-9" d="M824.76,468.44a3.08,3.08,0,0,1-1.54-.4,3.18,3.18,0,0,1-1.24-4.32l21.7-39.14a3.18,3.18,0,1,1,5.56,3.08L827.55,466.8a3.18,3.18,0,0,1-2.79,1.64Z"/><path class="cls-9" d="M853.1,417.29a3.36,3.36,0,0,1-1.55-.39,3.19,3.19,0,0,1-1.23-4.33l6.51-11.71A3.18,3.18,0,0,1,862.4,404l-6.51,11.71a3.18,3.18,0,0,1-2.79,1.63Z"/><path class="cls-12" d="M693.16,430.33a3.05,3.05,0,0,1-1.54-.4,3.17,3.17,0,0,1-1.24-4.32l12.37-22.34a3.18,3.18,0,0,1,5.56,3.08l-12.37,22.34a3.17,3.17,0,0,1-2.78,1.64Z"/><path class="cls-12" d="M892.36,459.76a3.08,3.08,0,0,1-1.54-.4,3.18,3.18,0,0,1-1.25-4.32l22.1-39.9a3.18,3.18,0,1,1,5.56,3.08l-22.09,39.9a3.17,3.17,0,0,1-2.78,1.64Z"/><rect class="cls-8" x="470.59" y="365.15" width="120.28" height="119.37"/><path class="cls-12" d="M766.3,459.76a3.08,3.08,0,0,1-1.54-.4,3.17,3.17,0,0,1-1.24-4.32l34.56-62.39a3.18,3.18,0,0,1,5.57,3.08l-34.57,62.39a3.17,3.17,0,0,1-2.78,1.64Z"/><rect class="cls-8" x="470.59" y="500.13" width="120.28" height="119.37"/><polygon class="cls-9" points="470.59 619.49 516.27 619.49 582.44 500.13 511.22 500.13 470.59 573.44 470.59 619.49"/><polygon class="cls-9" points="496.1 365.15 470.59 365.15 470.59 411.18 496.1 365.15"/><polygon class="cls-9" points="590.69 365.15 564.4 365.15 498.25 484.52 569.29 484.52 590.69 445.92 590.69 365.15"/><path class="cls-9" d="M560.19,593.54a3.18,3.18,0,0,1-2.78-4.72L563,578.76a3.18,3.18,0,1,1,5.56,3.09l-5.56,10a3.18,3.18,0,0,1-2.79,1.64Z"/><path class="cls-9" d="M570.87,574.24a3.14,3.14,0,0,1-1.53-.39,3.19,3.19,0,0,1-1.24-4.33l15.46-27.89a3.18,3.18,0,0,1,5.57,3.08L573.66,572.6a3.16,3.16,0,0,1-2.79,1.64Z"/><path class="cls-9" d="M470.59,487.7a3.15,3.15,0,0,1-1.54-.39,3.19,3.19,0,0,1-1.24-4.33l40.66-73.34a3.18,3.18,0,1,1,5.56,3.08l-40.66,73.34a3.18,3.18,0,0,1-2.78,1.64Z"/><path class="cls-9" d="M517.5,403.08a3.18,3.18,0,0,1-2.78-4.72l6.46-11.66a3.18,3.18,0,0,1,5.57,3.08l-6.46,11.66a3.19,3.19,0,0,1-2.79,1.64Z"/><path class="cls-12" d="M564.15,458.34a3.18,3.18,0,0,1-2.78-4.72L584,412.8a3.15,3.15,0,0,1,4.32-1.24,3.18,3.18,0,0,1,1.24,4.32L566.94,456.7a3.19,3.19,0,0,1-2.79,1.64Z"/><path class="cls-12" d="M514.92,483.25a3.18,3.18,0,0,1-2.78-4.72l22.72-41a3.18,3.18,0,1,1,5.57,3.08l-22.73,41a3.18,3.18,0,0,1-2.78,1.64Z"/><path class="cls-9" d="M472.26,531.21a3.17,3.17,0,0,1-2.78-4.72L485,498.58a3.18,3.18,0,0,1,5.57,3.09l-15.47,27.9a3.17,3.17,0,0,1-2.79,1.64Z"/><path class="cls-4" d="M595.11,488.76H466.35V360.92H595.11V488.76Zm-120.28-8.48h111.8V369.39H474.83V480.28Z"/><path class="cls-12" d="M471.33,622.67a3.11,3.11,0,0,1-1.53-.39,3.19,3.19,0,0,1-1.25-4.33l46.93-84.65a3.18,3.18,0,1,1,5.56,3.08L474.12,621a3.19,3.19,0,0,1-2.79,1.64Z"/><path class="cls-12" d="M544.56,429.77a3.18,3.18,0,0,1-2.78-4.72l6.79-12.25a3.18,3.18,0,1,1,5.56,3.08l-6.79,12.25a3.18,3.18,0,0,1-2.78,1.64Z"/><path class="cls-12" d="M524,527.72a3.18,3.18,0,0,1-2.78-4.72l4.94-8.91a3.18,3.18,0,1,1,5.56,3.08l-4.93,8.91a3.18,3.18,0,0,1-2.79,1.64Z"/><path class="cls-4" d="M595.11,623.73H466.35V495.89H595.11V623.73Zm-120.28-8.48h111.8V504.36H474.83V615.25Z"/><path class="cls-12" d="M970.78,679.62h-56a4.24,4.24,0,0,1,0-8.48h56a4.24,4.24,0,0,1,0,8.48Z"/><path class="cls-12" d="M899.5,679.62H889a4.24,4.24,0,0,1,0-8.48H899.5a4.24,4.24,0,0,1,0,8.48Z"/><rect class="cls-3" x="583.03" y="463.82" width="15.68" height="57.01"/><path class="cls-4" d="M602.94,525.07H578.79V459.58h24.15v65.49Zm-15.67-8.48h7.19V468.06h-7.19v48.53Z"/><path class="cls-15" d="M570.88,423.64a8.23,8.23,0,0,1-8.23,8.23h-64a8.23,8.23,0,0,1-8.22-8.23V407.69a8.23,8.23,0,0,1,8.22-8.23h64a8.23,8.23,0,0,1,8.23,8.23Z"/><path class="cls-4" d="M562.65,434h-64a10.36,10.36,0,0,1-10.34-10.35V407.69a10.36,10.36,0,0,1,10.34-10.35h64A10.36,10.36,0,0,1,573,407.69v15.95A10.36,10.36,0,0,1,562.65,434Zm-64-32.41a6.11,6.11,0,0,0-6.1,6.11v15.95a6.11,6.11,0,0,0,6.1,6.11h64a6.12,6.12,0,0,0,6.11-6.11V407.69a6.12,6.12,0,0,0-6.11-6.11Z"/><path class="cls-4" d="M544.76,401.58a2.13,2.13,0,0,1-1.45-.57L530.65,389.2,518,401a2.12,2.12,0,1,1-2.89-3.09l12.51-11.67a8,8,0,0,1-2.36-5.26,5.42,5.42,0,1,1,10.83,0,7.9,7.9,0,0,1-2.37,5.26l12.51,11.67a2.11,2.11,0,0,1-1.44,3.66Zm-14.11-21.77a1.18,1.18,0,0,0-1.18,1.18,3.93,3.93,0,0,0,1.17,2.31,3.87,3.87,0,0,0,1.18-2.31,1.17,1.17,0,0,0-1.17-1.18Z"/><rect class="cls-16" y="696.35" width="1382.25" height="29.54"/><polygon class="cls-4" points="1382.25 700.59 0 700.59 0 692.11 1382.25 692.11 1382.25 700.59 1382.25 700.59"/><polygon class="cls-4" points="695.37 725.89 686.89 725.89 686.89 696.35 695.37 696.35 695.37 725.89 695.37 725.89"/><polygon class="cls-4" points="534.96 725.89 526.48 725.89 526.48 696.35 534.96 696.35 534.96 725.89 534.96 725.89"/><polygon class="cls-4" points="374.55 725.89 366.07 725.89 366.07 696.35 374.55 696.35 374.55 725.89 374.55 725.89"/><polygon class="cls-4" points="214.14 725.89 205.66 725.89 205.66 696.35 214.14 696.35 214.14 725.89 214.14 725.89"/><polygon class="cls-4" points="53.73 725.89 45.25 725.89 45.25 696.35 53.73 696.35 53.73 725.89 53.73 725.89"/><polygon class="cls-4" points="855.79 725.89 847.31 725.89 847.31 696.35 855.79 696.35 855.79 725.89 855.79 725.89"/><polygon class="cls-4" points="1016.2 725.89 1007.72 725.89 1007.72 696.35 1016.2 696.35 1016.2 725.89 1016.2 725.89"/><polygon class="cls-4" points="1176.61 725.89 1168.13 725.89 1168.13 696.35 1176.61 696.35 1176.61 725.89 1176.61 725.89"/><polygon class="cls-4" points="1337.02 725.89 1328.54 725.89 1328.54 696.35 1337.02 696.35 1337.02 725.89 1337.02 725.89"/><path class="cls-13" d="M204.1,629.89a17,17,0,1,0-33.95,0l-3,4.44v62h39.88v-62Z"/><path class="cls-4" d="M207.07,700.59H167.19a4.24,4.24,0,0,1-4.24-4.24v-62a4.29,4.29,0,0,1,.71-2.35l2.29-3.44a21.22,21.22,0,0,1,42.35,0l2.3,3.44a4.29,4.29,0,0,1,.71,2.35v62a4.24,4.24,0,0,1-4.24,4.24Zm-35.64-8.48h31.4V635.62l-2.25-3.37a4.23,4.23,0,0,1-.72-2.36,12.74,12.74,0,1,0-25.47,0,4.3,4.3,0,0,1-.71,2.36l-2.25,3.37v56.49Z"/><polygon class="cls-17" points="209.54 221.43 164.72 221.43 158.66 170.94 215.61 170.94 209.54 221.43"/><path class="cls-4" d="M209.54,225.67H164.72a4.25,4.25,0,0,1-4.21-3.73l-6.07-50.5a4.29,4.29,0,0,1,1-3.32,4.23,4.23,0,0,1,3.17-1.42h57a4.23,4.23,0,0,1,3.17,1.42,4.29,4.29,0,0,1,1,3.32l-6.07,50.5a4.25,4.25,0,0,1-4.21,3.73Zm-41.06-8.48h37.3l5.05-42h-47.4l5,42Z"/><path class="cls-13" d="M187.13,143.4a27.52,27.52,0,0,0-27.52,27.54h55A27.52,27.52,0,0,0,187.13,143.4Z"/><path class="cls-4" d="M214.65,175.18h-55a4.24,4.24,0,0,1-4.24-4.24,31.76,31.76,0,1,1,63.52,0,4.24,4.24,0,0,1-4.24,4.24Zm-50.42-8.48H210a23.29,23.29,0,0,0-45.8,0Z"/><path class="cls-4" d="M221.63,176h-69a5.09,5.09,0,0,1,0-10.17h69a5.09,5.09,0,1,1,0,10.17Z"/><path class="cls-4" d="M193.89,259.65H180.37a4.24,4.24,0,0,1,0-8.48h13.52a4.24,4.24,0,0,1,0,8.48Z"/><polygon class="cls-4" points="191.37 617.15 182.89 617.15 182.89 166.7 191.37 166.7 191.37 617.15 191.37 617.15"/><polygon class="cls-4" points="191.37 147.64 182.89 147.64 182.89 127.23 191.37 127.23 191.37 147.64 191.37 147.64"/><path class="cls-4" d="M194,131.47a6.84,6.84,0,1,0-6.84,6.84A6.84,6.84,0,0,0,194,131.47Z"/><rect class="cls-7" x="1194.64" y="525.43" width="89.79" height="109.84" rx="41.08"/><path class="cls-4" d="M1243.36,638.46h-7.64a44.31,44.31,0,0,1-44.26-44.26V566.51a44.31,44.31,0,0,1,44.26-44.26h7.64a44.3,44.3,0,0,1,44.25,44.26V594.2a44.3,44.3,0,0,1-44.25,44.26Zm-7.64-109.85a38,38,0,0,0-37.9,37.9V594.2a38,38,0,0,0,37.9,37.9h7.64a37.94,37.94,0,0,0,37.89-37.9V566.51a37.94,37.94,0,0,0-37.89-37.9Z"/><path class="cls-4" d="M1239.53,700.59a4.24,4.24,0,0,1-4.24-4.24V574.72a4.24,4.24,0,0,1,8.48,0V696.35a4.24,4.24,0,0,1-4.24,4.24Z"/><path class="cls-4" d="M1239.53,604.72a3.09,3.09,0,0,1-2.19-.89l-19-18.16a3.18,3.18,0,0,1,4.39-4.59l19,18.17a3.18,3.18,0,0,1-2.19,5.47Z"/><path class="cls-4" d="M1239.53,616.22a3.18,3.18,0,0,1-2.19-5.48l16.33-15.61a3.18,3.18,0,0,1,4.39,4.6l-16.34,15.61a3.14,3.14,0,0,1-2.19.88Z"/><polygon class="cls-18" points="994.91 674.99 1084.73 674.99 1109.51 547.58 1019.69 547.58 994.91 674.99"/><path class="cls-4" d="M1084.73,679.23H994.91a4.24,4.24,0,0,1-4.16-5.06l24.78-127.4a4.24,4.24,0,0,1,4.16-3.43h89.82a4.25,4.25,0,0,1,4.17,5L1088.9,675.8a4.25,4.25,0,0,1-4.17,3.43Zm-84.67-8.48h81.18l23.13-118.93h-81.18l-23.13,118.93Z"/><polygon class="cls-15" points="1134.27 674.99 1044.45 674.99 1019.69 547.58 1109.51 547.58 1134.27 674.99"/><path class="cls-4" d="M1134.27,679.23h-89.82a4.24,4.24,0,0,1-4.16-3.43l-24.76-127.41a4.27,4.27,0,0,1,.89-3.51,4.21,4.21,0,0,1,3.27-1.54h89.82a4.25,4.25,0,0,1,4.17,3.43l24.76,127.4a4.25,4.25,0,0,1-4.17,5.06ZM1048,670.75h81.18L1106,551.82h-81.19L1048,670.75Z"/><polygon class="cls-4" points="1127.65 696.35 1114.93 696.35 1114.93 674.99 1127.65 674.99 1127.65 696.35 1127.65 696.35"/><polygon class="cls-4" points="1063.78 696.35 1051.06 696.35 1051.06 674.99 1063.78 674.99 1063.78 696.35 1063.78 696.35"/><polygon class="cls-4" points="1014.26 696.35 1001.54 696.35 1001.54 674.99 1014.26 674.99 1014.26 696.35 1014.26 696.35"/><path class="cls-14" d="M1091.51,576.31h-40.12a3.18,3.18,0,0,1,0-6.36h40.12a3.18,3.18,0,1,1,0,6.36Z"/><path class="cls-14" d="M1096.58,601.75h-40.1a3.18,3.18,0,0,1,0-6.36h40.1a3.18,3.18,0,0,1,0,6.36Z"/><path class="cls-14" d="M1101.4,627.19h-40.12a3.18,3.18,0,1,1,0-6.36h40.12a3.18,3.18,0,0,1,0,6.36Z"/><path class="cls-14" d="M1106.35,652.63h-40.12a3.18,3.18,0,0,1,0-6.36h40.12a3.18,3.18,0,0,1,0,6.36Z"/><path class="cls-3" d="M33.9,554.69H136.78a4.15,4.15,0,0,1,0,8.29H73.64c-1,1.3-2.06,3.53-.66,5.6L85.6,587.06l-6.85,4.67L59.12,563H33.9a4.15,4.15,0,0,1,0-8.29Z"/><path class="cls-4" d="M78.2,594.68,58,565.1H33.9a6.27,6.27,0,0,1,0-12.53H136.78a6.27,6.27,0,0,1,0,12.53h-62a2.19,2.19,0,0,0-.07,2.3l13.81,20.22L78.2,594.68ZM33.9,556.81a2,2,0,0,0,0,4.05H60.24l19.07,27.93,3.34-2.28L71.23,569.77c-1.58-2.33-1.32-5.26.69-8l.64-.88h64.22a2,2,0,0,0,0-4.05Z"/><path class="cls-19" d="M166.64,650.91a45.44,45.44,0,1,0-45.43,45.44A45.42,45.42,0,0,0,166.64,650.91Z"/><path class="cls-5" d="M158.92,650.91a37.71,37.71,0,1,0-37.71,37.71A37.7,37.7,0,0,0,158.92,650.91Z"/><path class="cls-13" d="M147.56,650.91a26.36,26.36,0,1,0-26.35,26.36A26.35,26.35,0,0,0,147.56,650.91Z"/><path class="cls-20" d="M133,650.91a11.82,11.82,0,1,0-11.82,11.81A11.84,11.84,0,0,0,133,650.91Z"/><g class="cls-10"><path class="cls-21" d="M75.77,650.91a45.44,45.44,0,1,1,89.48,10.69H77.17A44.93,44.93,0,0,1,75.77,650.91Z"/></g><path class="cls-4" d="M121.21,700.59a49.68,49.68,0,1,1,49.67-49.68,49.73,49.73,0,0,1-49.67,49.68Zm0-90.87a41.2,41.2,0,1,0,41.19,41.19,41.24,41.24,0,0,0-41.19-41.19Z"/><path class="cls-4" d="M121.21,679.39a28.48,28.48,0,1,1,28.47-28.48,28.52,28.52,0,0,1-28.47,28.48Zm0-52.71a24.24,24.24,0,1,0,24.23,24.23,24.27,24.27,0,0,0-24.23-24.23Z"/><path class="cls-4" d="M121.21,665.9a15,15,0,1,1,15-15,15,15,0,0,1-15,15Zm0-23.63a8.64,8.64,0,1,0,8.64,8.64,8.66,8.66,0,0,0-8.64-8.64Z"/><path class="cls-19" d="M389,650.91a45.44,45.44,0,1,0-45.43,45.44A45.42,45.42,0,0,0,389,650.91Z"/><path class="cls-5" d="M381.24,650.91a37.72,37.72,0,1,0-37.71,37.71A37.7,37.7,0,0,0,381.24,650.91Z"/><path class="cls-13" d="M369.88,650.91a26.36,26.36,0,1,0-26.35,26.36A26.35,26.35,0,0,0,369.88,650.91Z"/><g class="cls-10"><path class="cls-21" d="M343.53,605.48a45.33,45.33,0,0,1,42.31,29.2c-6.44.69-15.85.7-29.58.7H331.14c-.75.82-1.79,2.13-2.61,3.16-5,6.36-13.48,17-29.26,17-.23,0-.48,0-.72,0a46,46,0,0,1-.46-4.59A45.43,45.43,0,0,1,343.53,605.48Z"/></g><path class="cls-20" d="M355.34,650.91a11.82,11.82,0,1,0-11.81,11.81A11.82,11.82,0,0,0,355.34,650.91Z"/><path class="cls-4" d="M343.53,665.9a15,15,0,1,1,15-15,15,15,0,0,1-15,15Zm0-23.63a8.64,8.64,0,1,0,8.63,8.64,8.65,8.65,0,0,0-8.63-8.64Z"/><path class="cls-4" d="M343.53,679.39A28.48,28.48,0,1,1,372,650.91a28.52,28.52,0,0,1-28.47,28.48Zm0-52.71a24.24,24.24,0,1,0,24.23,24.23,24.27,24.27,0,0,0-24.23-24.23Z"/><path class="cls-4" d="M343.53,700.59a49.68,49.68,0,1,1,49.67-49.68,49.73,49.73,0,0,1-49.67,49.68Zm0-90.87a41.2,41.2,0,1,0,41.19,41.19,41.24,41.24,0,0,0-41.19-41.19Z"/><path class="cls-22" d="M304.55,461.14v41.25H293.6a14.25,14.25,0,0,1-6.88-1.84l2.08,4.66-13.68,9.61-12.27-22v-14c0-3.7,16.13-14.37,20.86-15.47S292.93,461.14,304.55,461.14Z"/><path class="cls-17" d="M249.29,650.91h0c6.77,0-4.57,0,0-.06Z"/><path class="cls-17" d="M136.78,558.84h93.49c0,12.71-33.85,27.86-33.85,41.79s10.11,31.49,26.45,31.49h52.25c-11.79,18.74-25.83,18.79-25.83,18.79H51.44S76.5,558.84,136.78,558.84Z"/><g class="cls-10"><path class="cls-23" d="M230.27,558.84c0,3.14-2.08,6.43-5.19,9.82h-86.8c-25.45,0-47.6,18.42-61.26,37.39.4-4.88,2.59-11.4,6.29-18.11,13.23-16.17,30.87-29.1,53.47-29.1Z"/></g><path class="cls-17" d="M249.29,650.91h0c6.77,0-4.57,0,0-.06Z"/><path class="cls-17" d="M222.67,650.86h0c8.69,0-5.87,0,0-.09Z"/><g class="cls-10"><path class="cls-23" d="M258.35,632.12h16.77c-11.79,18.74-25.83,18.79-25.83,18.79H227.12C233.17,648.64,250.24,643.54,258.35,632.12Z"/></g><path class="cls-4" d="M249.29,655.15h0a6.74,6.74,0,0,1-.79,0h0c-3.9-.32-4.52-2.74-4.52-4.21s.6-3.89,4.49-4.24h0a6.63,6.63,0,0,1,.79,0l4.3-.06v.61a3.72,3.72,0,0,1,1.64,1.63l1.23,2.12L255.17,653a3.67,3.67,0,0,1-1.64,1.63v.46l-2.09,0h-2.15Z"/><path class="cls-4" d="M249.31,655.15H51.44a4.23,4.23,0,0,1-4.09-5.35c1.06-3.89,26.63-95.2,89.43-95.2h93.49a4.24,4.24,0,0,1,4.24,4.24c0,8.18-8.67,15.48-17.86,23.2-7.12,6-16,13.44-16,18.59,0,11.14,7.91,27.25,22.21,27.25h52.25a4.25,4.25,0,0,1,3.59,6.5c-12.89,20.48-28.74,20.77-29.4,20.77ZM57.2,646.67h192c.6,0,8.82-.49,17.47-10.31H222.87c-18.08,0-30.69-18.83-30.69-35.73,0-9.1,9.67-17.23,19-25.09,4.7-3.95,10.22-8.58,13-12.46H136.78c-48.15,0-73.18,64.36-79.58,83.59Z"/><path class="cls-22" d="M150.78,574.29c-62.69,0-88.43,46-99.34,76.62H182.29S215.91,574.29,150.78,574.29Z"/><g class="cls-10"><path class="cls-23" d="M134.05,643c-61,0-61.11,0-61.11-9.31,0-13.6,24.73-45,24.83-45.18C72,604.51,58.55,631,51.44,650.91H182.29s1.34-3.07,3-7.95Z"/></g><path class="cls-4" d="M182.29,654.09H51.44a3.18,3.18,0,0,1-3-4.25c12.8-35.91,41-78.74,102.33-78.74,17.61,0,30.08,5.43,37.06,16.12,15.3,23.41-1.89,63.29-2.64,65a3.15,3.15,0,0,1-2.91,1.9ZM56,647.73H180.15c3.13-8,14.06-39.15,2.36-57-5.74-8.78-16.41-13.22-31.73-13.22-55.29,0-82,37.24-94.76,70.26Z"/><path class="cls-24" d="M62.12,622.72A166.86,166.86,0,0,1,82.18,589.4v0h-17L49.78,622.74H62.11Z"/><path class="cls-4" d="M62.11,625.92H49.78a3.18,3.18,0,0,1-2.89-4.51L62.34,588a3.18,3.18,0,0,1,2.88-1.84h17a3.17,3.17,0,0,1,3.08,2.4,3.28,3.28,0,0,1-.58,2.79A161.5,161.5,0,0,0,65,624.06a3.22,3.22,0,0,1-2.9,1.86Zm-7.35-6.36h5.33a172.57,172.57,0,0,1,15.73-27H67.26l-12.5,27Z"/><path class="cls-25" d="M150.5,635.53H97.78a3.18,3.18,0,0,1,0-6.36H150.5a3.18,3.18,0,0,1,0,6.36Z"/><path class="cls-25" d="M150.5,622.88H100.72a3.18,3.18,0,1,1,0-6.36H150.5a3.18,3.18,0,1,1,0,6.36Z"/><path class="cls-25" d="M150.5,610.23H108.6a3.18,3.18,0,1,1,0-6.36h41.9a3.18,3.18,0,1,1,0,6.36Z"/><path class="cls-17" d="M321.71,588.45l13.47-5L289.6,507.74s-9.27,4.82-13.68,12.6c-2.09,3.73.71,9.93.71,9.93l19.64,37.48c2.15,4.56,2.65,9.47-.13,14.66,0,0-13.83,38.3-21,49.71-11.79,18.74-25.83,18.79-25.83,18.79,33.92,0,37.06,0,41.36-9.07l15.77-33.92C312.91,593.75,314.55,591.1,321.71,588.45Z"/><g class="cls-10"><path class="cls-23" d="M280.13,539.15l-5.38-10.29s-2.8-6.21-.71-9.94c4.41-7.76,13.68-12.6,13.68-12.6l4.51,7.5C286.63,518.87,281.1,526.93,280.13,539.15Z"/></g><g class="cls-10"><path class="cls-23" d="M321.71,588.45c-5.51,2-13.89,8.95-13.89,8.95s5.56-10.07,9.34-15.59-5.9-33.44-5.9-33.44l.84-3.26,23.08,38.34Z"/></g><path class="cls-4" d="M249.31,655.15h0a4.24,4.24,0,0,1-.06-8.48c.6,0,12.1-.59,22.3-16.81C278.4,619,292,581.35,292.15,581a11.72,11.72,0,0,0,.28-11.41l-19.56-37.32c-.72-1.59-3.64-8.65-.64-14,5-8.78,15-14.06,15.41-14.28a4.24,4.24,0,0,1,5.59,1.57l45.58,75.72a4.24,4.24,0,0,1-2.16,6.16l-13.46,5c-5.35,2-6.41,3.06-12.92,17.25l-15.77,34c-5.47,11.52-10.76,11.52-45.19,11.52Zm38.88-141.53c-2.71,1.9-6.4,5-8.58,8.81-.63,1.12.1,4.36.88,6.09L300,565.78c3.08,6.53,3,12.75-.14,18.63-.33,1-13.82,38.3-21.17,50a53.11,53.11,0,0,1-10.25,12.15c15.45-.37,16.09-1.72,18.36-6.51l15.75-33.89c6.48-14.12,8.75-18.35,17.67-21.65l8.67-3.22-40.72-67.64Z"/><path class="cls-22" d="M335.18,583.45l-13.47,5c-7.16,2.65-8.8,5.3-15.29,19.47l-15.77,33.92C316.36,649.26,320.79,623,329.3,623h27c33.23,0,33.23,0,33.23-3.91C389.49,595.54,335.18,583.45,335.18,583.45Z"/><g class="cls-10"><path class="cls-23" d="M346.13,588.21,328.19,596c-7.16,2.64-13.95,17-20.45,31.16l-6.66,14.34a47.64,47.64,0,0,1-10.87-1.32L306,606.29c6.5-14.17,8.14-16.83,15.3-19.46l13.46-5Z"/></g><path class="cls-4" d="M299.27,647.4a35.31,35.31,0,0,1-9.79-1.49l-4.76-1.37,17.85-38.41c6.48-14.12,8.75-18.35,17.67-21.65L334.87,579l1.23.27c5.9,1.32,57.63,13.59,57.63,39.75,0,8.15-.71,8.15-37.47,8.15h-27c-1,.15-3.48,3.31-5,5.21-4.72,6-11.87,15-25.05,15Zm-2.52-8.63c10.52,1.2,16.17-5.6,20.92-11.62,3.43-4.33,6.67-8.42,11.63-8.42h27c15.64,0,25.27,0,28.89-.48-1.95-15.78-35.92-27.1-49.69-30.38l-12.27,4.56c-5.35,2-6.41,3.06-12.92,17.25l-13.52,29.09Z"/><path class="cls-26" d="M230.27,558.84c18.39,0,8.2-15.2-6.21-18.23-25.34-5.32-67.47-7.08-80.45-9.1s-45.83,27.33-6.83,27.33Z"/><path class="cls-4" d="M230.27,563.08H136.78c-7.17,0-12.49-.92-16.25-2.82-5.63-2.83-6.47-7.21-6.47-9.58,0-11.37,19.6-25,30.21-23.36,4.4.69,12.62,1.37,22.15,2.16,18.63,1.55,41.81,3.47,58.51,7,11.12,2.34,20.21,10.78,19.45,18.07-.26,2.57-2.17,8.55-14.11,8.55ZM142.9,535.7c-7.54,0-20.36,9.8-20.36,15,0,.36,0,1.1,1.8,2s5.29,1.91,12.44,1.91h93.49c4.69,0,5.74-1.11,5.75-1.12.06-1.39-4.77-7-12.83-8.72-16.19-3.4-40.05-5.38-57.47-6.83-10.09-.84-18.06-1.5-22.76-2.23Z"/><path class="cls-27" d="M304.21,460.22v43.07c6.29,0,11.38-9.64,11.38-21.53S310.5,460.22,304.21,460.22Z"/><path class="cls-4" d="M304.21,505.83a2.53,2.53,0,0,1-2.54-2.54V460.22a2.54,2.54,0,0,1,2.54-2.55c7.81,0,13.92,10.58,13.92,24.09s-6.11,24.07-13.92,24.07Zm2.54-42.15v36.15c3.33-2.36,6.3-9.14,6.3-18.07s-3-15.71-6.3-18.08Z"/><path class="cls-4" d="M275.12,518a2.8,2.8,0,0,1-.7-.09,3.14,3.14,0,0,1-2.07-1.55l-12.28-22a3.19,3.19,0,0,1-.4-1.55v-14c0-6.58,19.27-17.63,23.32-18.57,4.94-1.16,9.78-2.3,21.56-2.3v6.36c-11.05,0-15.32,1-19.86,2.07S267.1,476.56,266,479.3L266,492l10.15,18.2,8.65-6.07-1-2.28a3.17,3.17,0,0,1,.82-3.69,3.12,3.12,0,0,1,3.77-.29,11.29,11.29,0,0,0,5.19,1.35h10.95v6.36H293.6c-.56,0-1.11,0-1.63-.08a3.16,3.16,0,0,1-1.34,2.32L277,517.42a3.18,3.18,0,0,1-1.83.58Z"/><path class="cls-4" d="M293.6,504.51a2.27,2.27,0,0,1-.72-.12,2.12,2.12,0,0,1-1.28-2.71c0-.08,3-8.63,3-16.56V461.35c0-2.33,4.24-2.33,4.24,0v23.77a61.27,61.27,0,0,1-3.28,18,2.09,2.09,0,0,1-2,1.4Z"/><path class="cls-28" d="M276.5,492.22a8.11,8.11,0,1,1-8.12-8.09A8.13,8.13,0,0,1,276.5,492.22Z"/><path class="cls-4" d="M268.38,502.47a10.23,10.23,0,1,1,10.24-10.25,10.24,10.24,0,0,1-10.24,10.25Zm0-16.22a6,6,0,1,0,6,6,6,6,0,0,0-6-6Z"/><path class="cls-4" d="M252.09,506.76a6.69,6.69,0,0,1,.72-9.48l8.79-7.57a6.73,6.73,0,0,1,9.48.72h0a6.74,6.74,0,0,1-.69,9.48l-8.81,7.57A6.73,6.73,0,0,1,252.09,506.76Z"/><path class="cls-13" d="M1194.48,629.89a17,17,0,1,0-34,0l-3,4.44v62h39.88v-62Z"/><path class="cls-4" d="M1197.44,700.59h-39.88a4.24,4.24,0,0,1-4.24-4.24v-62A4.29,4.29,0,0,1,1154,632l2.3-3.44a21.22,21.22,0,0,1,42.35,0L1201,632a4.21,4.21,0,0,1,.71,2.35v62a4.23,4.23,0,0,1-4.24,4.24Zm-35.64-8.48h31.4V635.62l-2.25-3.37a4.3,4.3,0,0,1-.71-2.36,12.74,12.74,0,1,0-25.47,0,4.23,4.23,0,0,1-.72,2.36l-2.25,3.37v56.49Z"/><polygon class="cls-17" points="1199.91 221.43 1155.09 221.43 1149.03 170.94 1205.97 170.94 1199.91 221.43"/><path class="cls-4" d="M1199.91,225.67h-44.82a4.24,4.24,0,0,1-4.2-3.73l-6.07-50.5a4.29,4.29,0,0,1,1-3.32,4.22,4.22,0,0,1,3.17-1.42H1206a4.22,4.22,0,0,1,4.21,4.74l-6.06,50.5a4.25,4.25,0,0,1-4.21,3.73Zm-41.06-8.48h37.3l5-42h-47.38l5,42Z"/><path class="cls-13" d="M1177.5,143.4A27.54,27.54,0,0,0,1150,170.94H1205A27.53,27.53,0,0,0,1177.5,143.4Z"/><path class="cls-4" d="M1205,175.18H1150a4.24,4.24,0,0,1-4.24-4.24,31.77,31.77,0,1,1,63.54,0,4.24,4.24,0,0,1-4.24,4.24Zm-50.43-8.48h45.8a23.29,23.29,0,0,0-45.8,0Z"/><path class="cls-4" d="M1212,176h-69a5.09,5.09,0,0,1,0-10.17h69a5.09,5.09,0,1,1,0,10.17Z"/><path class="cls-4" d="M1184.26,259.65h-13.52a4.24,4.24,0,0,1,0-8.48h13.52a4.24,4.24,0,1,1,0,8.48Z"/><polygon class="cls-4" points="1181.74 617.15 1173.26 617.15 1173.26 166.7 1181.74 166.7 1181.74 617.15 1181.74 617.15"/><polygon class="cls-4" points="1181.74 147.64 1173.26 147.64 1173.26 127.23 1181.74 127.23 1181.74 147.64 1181.74 147.64"/><path class="cls-4" d="M1184.34,131.47a6.84,6.84,0,1,0-6.84,6.84A6.84,6.84,0,0,0,1184.34,131.47Z"/><path class="cls-6" d="M1317,696.35c.1-1.23.2-2.47.2-3.73a47.33,47.33,0,0,0-94.66,0c0,1.26.1,2.5.2,3.73Z"/><path class="cls-4" d="M1320,699.53H1219.84l-.24-2.92c-.11-1.32-.21-2.65-.21-4a50.51,50.51,0,0,1,101,0c0,1.34-.1,2.67-.21,4l-.24,2.92Zm-94.2-6.36H1314c0-.18,0-.37,0-.55a44.15,44.15,0,0,0-88.3,0c0,.18,0,.37,0,.55Z"/><rect class="cls-29" x="1266.59" y="571.03" width="76.65" height="93.77" rx="35.06"/><path class="cls-4" d="M1308.18,668h-6.52a38.29,38.29,0,0,1-38.25-38.24V606.09a38.29,38.29,0,0,1,38.25-38.24h6.52a38.29,38.29,0,0,1,38.25,38.24v23.65A38.29,38.29,0,0,1,1308.18,668Zm-6.52-93.77a31.92,31.92,0,0,0-31.89,31.88v23.65a31.92,31.92,0,0,0,31.89,31.88h6.52a31.92,31.92,0,0,0,31.89-31.88V606.09a31.92,31.92,0,0,0-31.89-31.88Z"/><path class="cls-4" d="M1304.92,700.59a4.24,4.24,0,0,1-4.24-4.24V613.12a4.24,4.24,0,1,1,8.48,0v83.23a4.24,4.24,0,0,1-4.24,4.24Z"/><path class="cls-4" d="M1304.92,639.18a3.18,3.18,0,0,1-2.2-.88l-16.21-15.5a3.18,3.18,0,0,1,4.39-4.61l16.21,15.51a3.18,3.18,0,0,1-2.19,5.48Z"/><path class="cls-4" d="M1304.92,649a3.12,3.12,0,0,1-2.29-1,3.15,3.15,0,0,1,.09-4.48l13.93-13.33a3.18,3.18,0,1,1,4.39,4.59l-13.93,13.32a3.1,3.1,0,0,1-2.19.89Z"/><path class="cls-29" d="M1230.73,696.35a30.61,30.61,0,0,0-61.14,0Z"/><path class="cls-4" d="M1234.1,699.53h-67.88l.19-3.35a33.79,33.79,0,0,1,67.5,0l.19,3.35Zm-60.95-6.36h54a27.42,27.42,0,0,0-54,0Z"/><g class="cls-30"><rect class="cls-31" x="294.54" y="368.23" width="41.87" height="19.19"/></g><g class="cls-32"><rect class="cls-33" x="288.96" y="339.32" width="28.12" height="32.52"/></g><g class="cls-34"><rect class="cls-35" x="285.68" y="351.98" width="50.72" height="41.48"/></g><path class="cls-36" d="M324.45,385.76h0a36.32,36.32,0,0,0,12-.48c-3.46,1.81-11.95,2.53-15.89,2.77-2.27,1.3-4.54,2.6-6.77,3.85a9.46,9.46,0,0,1-4.48,1.56,38.15,38.15,0,0,1-12.79-24.14,42.43,42.43,0,0,0,28,16.44"/><path class="cls-37" d="M324.45,385.76h0a36.32,36.32,0,0,0,12-.48c-3.46,1.81-11.95,2.53-15.89,2.77-2.27,1.3-4.54,2.6-6.77,3.85a7.21,7.21,0,0,1-9,0c-4.8-2.71-9.82-5.6-14.56-8.4a7.23,7.23,0,0,1-4.49-7.77c0-.83,0-1.67,0-2.52,0,0,14.63,8.6,29.36,10.17a39.5,39.5,0,0,0,9.38,2.38"/><path class="cls-38" d="M285.71,362c0-1,0-2.08,0-3.11a9.57,9.57,0,0,1,.89-4.67A7.37,7.37,0,0,1,288.9,352a38.33,38.33,0,0,0,7.57,17.34A38.93,38.93,0,0,1,285.71,362"/><path class="cls-39" d="M285.71,373.21c0-4.74,0-9.61,0-14.29a9.57,9.57,0,0,1,.89-4.67A7.37,7.37,0,0,1,288.9,352a35.77,35.77,0,0,0,2.42,8.51c-3.89,4.57-5.61,12.72-5.61,12.72"/><g class="cls-40"><rect class="cls-41" x="289.46" y="339.32" width="43.48" height="48.29"/></g><path class="cls-36" d="M332.77,377.73a4.33,4.33,0,0,1-.87,2.66c-6.23,7.23-21.46-3.13-23.64-7.87,7.12-.29,8.65-4.72,7.61-9h0s8.27,11.23,16.9,14.17"/><path class="cls-36" d="M332.83,364.85c0,3.64,0,7.32,0,10.88,0,1.56.15,3.45-.89,4.66-6.23,7.23-21.46-3.13-23.64-7.87,13.38,5.43,24.57-7.67,24.57-7.67"/><path class="cls-42" d="M328.31,351.15a7.22,7.22,0,0,1,4.48,7.77c0,1.87,0,3.78,0,5.69a67.26,67.26,0,0,0-41.25-12.75,55.42,55.42,0,0,1-2.11-12.54s1.5,6.8,3.28,10.35c4-2.33,8.08-4.69,12-6.93a7.21,7.21,0,0,1,9,0c4.83,2.73,9.78,5.59,14.57,8.41"/><path class="cls-43" d="M294.11,358.17a32.53,32.53,0,0,1-2-4.72h0a53.34,53.34,0,0,1-2.63-14.13s1.5,6.8,3.28,10.35c4-2.33,8.08-4.69,12-6.93a7.21,7.21,0,0,1,9,0c3.23,1.82,6.5,3.7,9.74,5.59-11.2.23-24.45,7.1-29.37,9.84"/><path class="cls-37" d="M332.79,376.39c0,1.41,0,3-.89,4-6.23,7.23-21.46-3.13-23.64-7.87,13.12-.54,7.27-15.11,1.3-16.7,7.28,1.35,11.56,14.45,2.94,17.91,7.34,7.16,13.65,8.26,20.29,2.66"/><path d="M512.07,420a2.46,2.46,0,0,1-.73-1.86v-4.2a2.42,2.42,0,0,1,.73-1.85,2.59,2.59,0,0,1,1.9-.7,2.66,2.66,0,0,1,1.92.69,2.42,2.42,0,0,1,.72,1.83V414c0,.09,0,.13-.13.13l-.66,0c-.09,0-.13,0-.13-.12v-.18a1.65,1.65,0,0,0-.48-1.23,1.68,1.68,0,0,0-1.24-.46,1.66,1.66,0,0,0-1.23.46,1.61,1.61,0,0,0-.47,1.23v4.31a1.63,1.63,0,0,0,.47,1.23,1.87,1.87,0,0,0,2.47,0,1.63,1.63,0,0,0,.48-1.22V418c0-.08,0-.12.13-.12l.66,0a.12.12,0,0,1,.13.13v.09a2.43,2.43,0,0,1-.72,1.84,3,3,0,0,1-3.82,0Z"/><path d="M518.43,420.44V411.6a.12.12,0,0,1,.13-.13h.66a.12.12,0,0,1,.13.13v8.12a0,0,0,0,0,0,0h3.79a.12.12,0,0,1,.13.13v.54a.12.12,0,0,1-.13.13h-4.63C518.47,420.57,518.43,420.53,518.43,420.44Z"/><path d="M525.69,420.35a2.34,2.34,0,0,1-.94-.93,2.82,2.82,0,0,1-.33-1.38v-4a2.82,2.82,0,0,1,.33-1.38,2.3,2.3,0,0,1,.94-.94,2.87,2.87,0,0,1,1.4-.33,2.83,2.83,0,0,1,1.39.33,2.32,2.32,0,0,1,.95.94,2.82,2.82,0,0,1,.34,1.38v4a2.82,2.82,0,0,1-.34,1.38,2.36,2.36,0,0,1-.95.93,2.83,2.83,0,0,1-1.39.33A2.87,2.87,0,0,1,525.69,420.35Zm2.67-1a1.78,1.78,0,0,0,.48-1.3V414a1.82,1.82,0,0,0-.48-1.32,1.85,1.85,0,0,0-2.53,0,1.82,1.82,0,0,0-.49,1.32v4.08a1.79,1.79,0,0,0,.49,1.3,1.88,1.88,0,0,0,2.53,0Z"/><path d="M531.93,420a2.18,2.18,0,0,1-.72-1.72V418c0-.09,0-.13.13-.13H532c.09,0,.14,0,.14.13v.3a1.48,1.48,0,0,0,.49,1.17,1.92,1.92,0,0,0,1.31.44,1.72,1.72,0,0,0,1.21-.41,1.57,1.57,0,0,0,.24-1.86,2.1,2.1,0,0,0-.62-.6c-.26-.18-.65-.41-1.15-.69s-1-.54-1.27-.75a2.6,2.6,0,0,1-.75-.8,2.14,2.14,0,0,1-.28-1.14A2.09,2.09,0,0,1,532,412a2.62,2.62,0,0,1,1.81-.6,2.7,2.7,0,0,1,1.92.66,2.29,2.29,0,0,1,.72,1.76v.3a.12.12,0,0,1-.13.13h-.65a.12.12,0,0,1-.13-.13v-.29a1.58,1.58,0,0,0-.47-1.18,1.82,1.82,0,0,0-1.29-.44,1.6,1.6,0,0,0-1.13.37,1.36,1.36,0,0,0-.41,1.07,1.34,1.34,0,0,0,.19.74,2,2,0,0,0,.57.55c.24.16.62.38,1.13.66a13.48,13.48,0,0,1,1.36.84,2.84,2.84,0,0,1,.76.79,2.11,2.11,0,0,1,.28,1.1,2.21,2.21,0,0,1-.71,1.73,2.7,2.7,0,0,1-1.91.65A2.81,2.81,0,0,1,531.93,420Z"/><path d="M543,412.28h-3.9s-.05,0-.05.05v3.23s0,.05.05.05h2.62c.09,0,.14,0,.14.13v.54c0,.09-.05.13-.14.13H539.1s-.05,0-.05.06v3.25s0,0,.05,0H543c.09,0,.13,0,.13.13v.54c0,.09,0,.13-.13.13h-4.75a.12.12,0,0,1-.13-.13V411.6a.12.12,0,0,1,.13-.13H543a.12.12,0,0,1,.13.13v.55C543.13,412.24,543.09,412.28,543,412.28Z"/><path d="M544.84,420.44V411.6a.12.12,0,0,1,.13-.13h2.54a2.51,2.51,0,0,1,1.83.67,2.44,2.44,0,0,1,.67,1.8v4.16a2.45,2.45,0,0,1-.67,1.81,2.5,2.5,0,0,1-1.83.66H545A.12.12,0,0,1,544.84,420.44Zm1-.67h1.7a1.47,1.47,0,0,0,1.13-.48,1.84,1.84,0,0,0,.43-1.26v-4a1.86,1.86,0,0,0-.41-1.27,1.47,1.47,0,0,0-1.15-.47h-1.7a0,0,0,0,0-.05.05v7.39A0,0,0,0,0,545.82,419.77Z"/></g></g></svg>